
<!-- Generator: Adobe Illustrator 27.0.0, SVG Export Plug-In . SVG Version: 6.00 Build 0)  -->
<svg version="1.1" id="Capa_1"  x="0px" y="0px"
	 viewBox="0 0 842.72 457.25" style="enable-background:new 0 0 842.72 457.25;" xml:space="preserve">
<style type="text/css">
	.st0{fill:#00CCF2;}
	.st1{fill:#FFFFFF;}
</style>
<path class="st0" d="M557.59,330.04c-4.89-4.54-9.91-8.95-14.48-13.8c-13.46-14.28-24.57-30.01-31.67-48.16
	c-3.41-8.7-5.61-17.7-6.7-26.98c-0.74-6.27-0.97-12.54-0.42-18.77c1.57-17.78,6.57-34.36,20.26-47.28
	c9.6-9.06,21.38-12.79,34.67-11.05c11.34,1.49,20.9,6.84,29.2,14.3c12.19,10.95,19.89,24.5,24.47,39.81
	c3.82,12.78,5.01,25.89,4.13,39.09c-0.95,14.3-4.19,28.17-9.84,41.5c-4.52,10.67-10.3,20.62-17.25,29.96
	c-0.95,1.28-0.69,1.82,0.62,2.51c11.65,6.12,23.87,10.68,36.94,13.16c10.87,2.06,21.82,2.34,32.72,1.23
	c16.77-1.71,32.31-7.11,46.42-16.15c2.07-1.32,4.06-2.76,6.11-4.1c1.13-0.74,1.1-1.33,0.11-2.27c-8.56-8.14-15.28-17.56-20.5-27.98
	c-4.23-8.45-7.29-17.28-9.42-26.44c-2.08-8.98-3.18-18.1-3.05-27.23c0.23-16.85,3.51-33.14,12.24-48.01
	c6.21-10.58,14.34-19.44,26.11-24.45c14.6-6.22,27.93-3.82,39.72,6.4c8.15,7.06,12.95,16.18,16.46,26.02
	c5.32,14.92,6.48,30.36,5,45.88c-2.28,23.95-10.42,46.01-24.87,65.77c-2.4,3.28-4.95,6.45-7.62,9.53c-0.85,0.98-0.61,1.32,0.48,1.74
	c4.09,1.55,8.32,2.54,12.66,3.18c8.22,1.2,16.49,1.07,24.72,0.51c8.37-0.57,16.73-1.21,25.09-2c6.08-0.58,12.18-1.52,18.35-1.05
	c3.49,0.26,6.72,1.21,9.69,2.97c2.51,1.49,2.83,3.17,0.95,5.38c-2.87,3.36-6.56,5.58-10.84,6.81c-7.48,2.15-15.11,3.66-22.73,5.26
	c-12.16,2.56-24.43,3.25-36.8,2.2c-11.86-1.02-23.26-3.79-33.84-9.2c-2.01-1.03-3.29-1.04-5.19,0.45
	c-11.76,9.23-24.9,16.07-39.29,20.75c-12.56,4.08-25.47,6.13-38.66,6.29c-10.45,0.12-20.79-1.13-30.99-3.54
	c-15.23-3.6-29.33-9.65-42.58-17.65c-0.96-0.58-1.41-0.51-2.18,0.25c-15.33,15.26-33.31,26.82-53.55,35.1
	c-10.52,4.3-21.37,7.69-32.59,9.96c-10.72,2.17-21.52,3.49-32.44,4.3c-12.08,0.9-24.12,0.42-36.12-0.56
	c-12.49-1.02-24.89-2.95-37.08-5.86c-7.29-1.74-14.52-3.68-21.56-6.21c-1.3-0.47-2.05-0.35-3.01,0.66
	c-16,16.83-35.76,27.8-58.19,34.57c-11.02,3.33-22.27,5.48-33.74,6.84c-11.73,1.39-23.49,1.71-35.23,1.16
	c-10.33-0.49-20.61-1.76-30.79-3.78c-11.53-2.29-22.8-5.34-33.67-9.67c-22.63-9-42.01-22.33-57.47-40.7
	c-11.18-13.29-19.63-28.07-25.11-44.38c-0.63-1.87-1.25-3.74-1.8-5.63c-0.38-1.28-1.33-1.91-2.47-2.48
	c-16.61-8.33-31.71-18.72-45.11-31.34c-10.55-9.93-17.74-21.87-22.47-35.28c-2.99-8.49-4.93-17.19-6.33-26.03
	c-0.25-1.59-0.65-3.18-0.74-4.79c-0.07-1.42-0.1-3.01,1.77-3.42c1.97-0.44,2.82,1.03,3.29,2.44c0.8,2.4,1.41,4.87,1.93,7.34
	c2.93,13.83,7.71,26.94,16.04,38.67c6.44,9.08,14.98,16.13,24.05,22.62c7.33,5.24,15,10,23.05,14.16c0.51,0.26,1.08,0.45,1.55,0.77
	c1.17,0.78,1.47,0.22,1.28-0.8c-1.01-5.36-1.09-10.78-1.29-16.19c-0.2-5.62,0.18-11.23,0.91-16.82c0.64-4.89,1.65-9.69,2.97-14.44
	c3.05-11.01,7.72-21.3,14.42-30.73c6.61-9.32,14.79-17.05,24.8-22.92c7.84-4.6,16.23-7.83,25.32-9.39
	c7.49-1.28,15.04-1.5,22.46-0.38c18.59,2.8,34.03,11.06,45.03,26.1c5.49,7.5,8.93,15.86,10.41,25.01
	c2.61,16.16-1.3,31.01-9.42,45.02c-7.07,12.19-16.73,22.19-28.65,30.07c-10.4,6.89-21.83,11.44-34.37,13.4
	c-9.1,1.42-18.2,1.41-27.28,0.41c-7.96-0.88-15.74-2.79-23.37-5.17c-0.6-0.19-1.24-0.78-1.78-0.16c-0.42,0.48,0.11,1.06,0.33,1.56
	c9.64,22.26,24.55,40.45,45.16,54.18c12.83,8.55,26.88,14.6,41.91,18.61c11.49,3.06,23.15,5,35.04,6.03
	c9.87,0.85,19.73,1.02,29.57,0.4c22.16-1.4,43.57-5.87,63.46-15.83c9.11-4.56,17.47-10.17,24.86-17.09
	c1.16-1.09,1.17-1.59-0.33-2.38c-14.77-7.77-27.81-17.6-38.37-30.31c-9.93-11.96-16.98-25.31-20.94-40.21
	c-2.74-10.31-3.47-20.76-2.29-31.24c1.43-12.73,5.75-24.44,15.84-33.42c6.9-6.14,15.1-9.35,24.53-9.72
	c13.27-0.51,24.72,4,35.06,11.6c12.38,9.1,20.37,21.26,26.14,34.97c3.97,9.43,6.63,19.24,7.6,29.33c1.2,12.46,0.73,24.88-2.96,37.05
	c-2.57,8.48-5.92,16.6-10.66,24.16c-1.32,2.09,0.04,2.28,1.51,2.66c7.25,1.88,14.56,3.39,21.97,4.61
	c13.23,2.17,26.58,2.77,39.93,2.81c10.64,0.03,21.3-0.73,31.85-2.32c23.14-3.49,44.82-10.83,64.74-22.83
	C541.51,344.04,552.33,335.64,557.59,330.04z"/>
<path class="st1" d="M89.87,282.64c0.52-18.85,5.06-36.58,16.43-52.2c9.44-12.97,21.85-22.18,38.15-25.69
	c20.89-4.5,38.95,0.74,53.69,15.7c5.93,6.02,9.46,13.47,11.12,21.66c2.91,14.38-0.85,27.5-8.57,39.69
	c-9.78,15.45-23.41,26.64-41.15,32.85c-9.45,3.31-19.32,4.32-29.31,3.77c-12.08-0.66-23.73-3.32-35.03-7.49
	c-1.32-0.49-1.76-1.23-2.02-2.42c-1.31-6.12-2.5-12.23-2.83-18.51C90.22,287.56,89.96,285.11,89.87,282.64z"/>
<path class="st1" d="M597.28,241.61c0.04,16.66-3.58,31.04-9.39,44.98c-4.2,10.08-9.7,19.48-16.43,28.18
	c-2.37,3.06-1.76,2.7-4.31,0.61c-14.69-12.08-27.18-25.93-36.35-42.41c-4.78-8.58-8.18-17.64-10.27-27.21
	c-1.93-8.86-2.19-17.78-1.28-26.69c1.08-10.49,4.38-20.32,10.96-28.95c9.18-12.05,24.26-14.81,37.65-6.75
	c10.94,6.59,18.18,16.16,23.02,27.47C595.3,221.16,597.48,231.95,597.28,241.61z"/>
<path class="st1" d="M695.51,238.52c0.3-13.04,2.81-26.63,10.36-38.97c4.7-7.67,10.72-14.05,19.68-17.27
	c7.58-2.72,14.19-0.95,19.97,4.16c5.65,4.99,8.9,11.44,11.26,18.31c3.43,10,4.66,20.32,4.2,30.81
	c-0.96,21.95-7.99,42.01-20.33,60.41c-3.53,5.27-7.5,10.21-11.8,14.92c-1.28,1.4-2,1.2-3.25,0.06
	c-11.31-10.26-18.99-22.72-24.02-36.78c-3-8.41-4.87-17.04-5.55-25.95C695.81,245.34,695.67,242.47,695.51,238.52z"/>
<path class="st1" d="M367.26,314.28c0.44,15.64-4.57,29.74-12.94,42.91c-0.76,1.2-1.53,1.49-2.85,0.86
	c-14.39-6.82-27.09-15.73-37.32-27.75c-9.48-11.13-15.92-23.7-18.7-37.86c-2.28-11.61-1.99-23.15,3.18-34.13
	c2.91-6.18,7.35-11.12,14.39-13.01c6.26-1.68,12.46-0.89,18.38,1.64c10.88,4.64,18.49,12.62,24.15,22.45
	c5.75,9.99,9.26,20.7,10.89,32.04C367.07,305.72,367.2,309.99,367.26,314.28z"/>
</svg>
