<svg viewBox="0 0 1920 818" fill="none">
<path d="M-21.6034 185.344C-27.0719 187.757 -30.8799 184.898 -25.1537 191.651C-19.8844 197.865 -16.2258 205.606 -11.9512 212.668C-3.86264 226.029 6.74426 236.687 16.1029 248.812C43.2609 283.998 65.7379 326.479 100.668 352.46C144.033 384.714 194.708 408.769 244.738 423.451C301.351 440.065 364.962 445.696 423.074 436.458C452.752 431.74 482.973 419.781 510.306 406.009C534.091 394.025 562.527 377.321 578.659 353.256C596.104 327.234 608.084 305.022 613.835 272.521C618.822 244.336 622.309 215.749 617.611 187.177C607.932 128.307 577.327 76.8153 531.028 47.0666C491.795 21.8584 446.416 -0.871598 400.421 11.4528C352.249 24.3606 309.256 59.0209 288.039 110.812C276.321 139.415 265.303 165.1 261.702 196.855C257.766 231.555 255.065 267.201 256.943 302.202C261.06 378.922 299.914 446.585 336.206 508.914C355.501 542.053 385.012 570.624 412.268 595.023C442.603 622.179 474.92 644.924 507.679 667.878C539.881 690.442 578.409 705.613 614.524 717.771C652.365 730.51 691.891 741.194 730.834 748.47C811.464 763.536 896.485 750.89 973.636 721.531C1008.36 708.317 1042.57 685.699 1070.58 659.058C1093.93 636.848 1120.54 613.711 1135 582.374C1147.71 554.835 1159.89 530.976 1161.6 499.095C1163.02 472.712 1159.91 448.563 1149.52 424.757C1130.69 381.596 1093.9 345.493 1051.36 337.056C1009.47 328.748 971.339 343.379 937.639 371.293C904.321 398.89 892.02 452.574 891.94 496.946C891.893 523.518 894.4 549.461 902.335 574.648C911.628 604.142 923.331 635.813 940.464 660.486C959.755 688.268 980 715.71 1005.81 736.043C1037.37 760.902 1070.68 776.986 1107.74 788.482C1192.01 814.621 1289.15 817.293 1374.15 794.592C1450.3 774.254 1535.29 726.465 1582.91 653.195C1620.58 595.235 1644.02 521.375 1629.99 448.789C1618.11 387.326 1591.89 325.907 1540.95 295.019C1503.94 272.577 1453.1 266.669 1416.53 292.436C1400.32 303.861 1381.62 327.828 1374.08 347.724C1365.13 371.342 1362.3 397.931 1362.31 423.416C1362.33 453.506 1368.08 484.48 1379.79 511.629C1393 542.281 1418.1 566.775 1440.09 588.938C1493.33 642.597 1558.91 676.471 1628.67 690.521C1663.21 697.478 1697.8 701.929 1732.92 701.315C1766.79 700.723 1800.92 690.792 1833.16 679.579C1858.44 670.788 1883.17 659.04 1906.7 645.3C1915.77 640.002 1926.05 635.807 1933.73 627.936C1938.35 623.195 1942 617.846 1947 613.491" stroke="#0D99FF" stroke-width="25" stroke-linecap="round" stroke-linejoin="round"/>
</svg>
