<svg viewBox="0 0 1623 678" fill="none">
<path d="M2.14146 6.38458C3.80335 27.9891 14.85 49.7267 23.9442 68.9133C36.1291 94.6205 50.7958 120.372 68.7839 142.549C86.6017 164.516 116.083 185.637 140.98 198.496C162.997 209.868 186.118 217.982 209.885 224.824C228.831 230.278 247.371 239.507 266.449 243.747C288.289 248.6 308.929 254.546 331.24 257.734C358.132 261.575 385.57 259.996 412.692 259.996C460.335 259.996 524.326 227.61 537.955 178.544C541.87 164.449 547.085 148.628 543.406 133.91C538.801 115.493 521.547 96.5228 508.439 83.4142C491.286 66.2615 469.221 46.1742 445.396 38.7802C420.809 31.1497 388.985 24.9376 363.944 34.2551C337.01 44.2773 321.089 62.6777 312.317 89.7905C294.027 146.321 285.797 205.997 305.735 263.596C332.914 342.114 398.715 410.223 464.525 458.484C517.657 497.447 577.824 535.822 646.352 535.822C676.203 535.822 705.634 536.582 735.208 532.531C756.934 529.555 780.581 517.234 798.148 503.94C817.143 489.566 831.774 444.182 803.291 432.156C794.763 428.555 781.416 423.559 771.82 427.014C761.24 430.823 759.317 448.662 754.749 457.147C752.221 461.84 752.828 473.991 753.823 479.464C757.039 497.152 777.821 517.346 789.715 529.24C814.921 554.445 842.76 570.461 877.852 575.622C906.451 579.828 937.39 576.548 966.297 576.548C978.768 576.548 993.468 577.493 1005.38 573.771C1015.27 570.681 1028.39 568.551 1038.8 567.395C1047.03 566.48 1054.56 563.589 1062.87 563.589" stroke="#00E1FF" stroke-width="12" stroke-linecap="round"/>
<path d="M1064.72 561.738C1064.72 549.229 1075.83 537.027 1080.56 525.435C1087.01 509.597 1095.08 494.492 1100.82 478.435C1103.17 471.839 1105.01 454.614 1109.56 468.768C1118.71 497.226 1127.18 526.148 1137.33 554.334C1142.33 568.232 1146.87 582.256 1151.83 596.191C1157.75 612.864 1160.71 631.821 1168.38 647.715C1171.55 654.27 1174.14 661.21 1175.69 668.181C1176.98 674.008 1178.45 670.537 1179.39 666.33C1180.68 660.503 1179.12 653.677 1179.59 647.715C1180.86 631.896 1186.55 615.299 1189.67 599.687C1198 558.026 1208.16 516.832 1215.49 474.939C1217.41 463.941 1218.44 452.787 1220.63 441.823C1220.87 440.617 1222.39 424.377 1225.36 427.014C1227.28 428.724 1227.22 437.456 1228.03 439.972C1230.99 449.163 1236.22 457.273 1238.32 466.917C1241.63 482.168 1248.97 495.651 1252.61 510.934C1255.54 523.225 1261.85 539.973 1269.17 550.425C1270.09 551.744 1271.83 545.201 1272.05 543.226C1272.47 539.455 1277.42 532.112 1279.45 528.828C1285.27 519.454 1288.19 508.589 1292.82 498.798C1296.61 490.809 1295.89 502.628 1296.53 504.763C1299.02 513.169 1300.5 522.393 1302.08 531.091C1306.03 552.802 1309.11 579.42 1318.33 599.585C1323.36 610.578 1326.3 622.365 1332.21 633.009C1332.94 634.314 1334.99 643.448 1334.99 638.562C1334.99 633.632 1336.4 629.543 1336.94 624.678C1338.09 614.38 1343.16 603.772 1346.1 593.825C1349.56 582.08 1350.04 569.717 1353.5 558.036C1359.36 538.278 1360.17 517.202 1366.05 497.358C1368.74 488.263 1369.46 479.838 1373.86 494.17C1379.4 512.169 1388.93 530.354 1398.96 546.106C1402.08 551.019 1404.92 555.852 1408.01 560.71C1408.44 561.392 1412.35 568.85 1412.84 568.115C1415.52 564.101 1414.3 559.115 1415.52 554.231C1417.55 546.094 1419.98 538.092 1423.02 530.268C1429.17 514.464 1434.44 498.251 1440.51 482.549C1443.4 475.072 1446.81 467.948 1449.35 460.335C1451.62 453.523 1453.09 463.671 1455.73 467.328C1475.33 494.474 1483.73 530.497 1506.12 556.082C1507.79 557.988 1507.15 550.287 1507.15 548.78C1507.15 538.442 1508.93 528.35 1510.44 518.133C1511.52 510.876 1510.02 496.947 1518.26 496.947C1550.96 496.947 1583.67 496.947 1616.37 496.947" stroke="#00E1FF" stroke-width="12" stroke-linecap="round"/>
</svg>
