<svg viewBox="0 0 1069 584" fill="none">
<path d="M2.14146 6.38458C3.80335 27.9891 14.85 49.7267 23.9442 68.9133C36.1291 94.6205 50.7958 120.372 68.7839 142.549C86.6017 164.516 116.083 185.637 140.98 198.496C162.997 209.868 186.118 217.982 209.885 224.824C228.831 230.278 247.371 239.507 266.449 243.747C288.289 248.6 308.929 254.546 331.24 257.734C358.132 261.575 385.57 259.996 412.692 259.996C460.335 259.996 524.326 227.61 537.955 178.544C541.87 164.449 547.085 148.628 543.406 133.91C538.801 115.493 521.547 96.5228 508.439 83.4142C491.286 66.2615 469.221 46.1742 445.396 38.7802C420.809 31.1497 388.985 24.9376 363.944 34.2551C337.01 44.2773 321.089 62.6777 312.317 89.7905C294.027 146.321 285.797 205.997 305.735 263.596C332.914 342.114 398.715 410.223 464.525 458.484C517.657 497.447 577.824 535.822 646.352 535.822C676.203 535.822 705.634 536.582 735.208 532.531C756.934 529.555 780.581 517.234 798.148 503.94C817.143 489.566 831.774 444.182 803.291 432.156C794.763 428.555 781.416 423.559 771.82 427.014C761.24 430.823 759.317 448.662 754.749 457.147C752.221 461.84 752.828 473.991 753.823 479.464C757.039 497.152 777.821 517.346 789.715 529.24C814.921 554.445 842.76 570.461 877.852 575.622C906.451 579.828 937.39 576.548 966.297 576.548C978.768 576.548 993.468 577.493 1005.38 573.771C1015.27 570.681 1028.39 568.551 1038.8 567.395C1047.03 566.48 1054.56 563.589 1062.87 563.589" stroke="#00E1FF" stroke-width="12" stroke-linecap="round"/>
</svg>
